<?xml version="1.0" encoding="utf-8"?>
<!-- Generator: Adobe Illustrator 24.3.0, SVG Export Plug-In . SVG Version: 6.00 Build 0)  -->
<svg version="1.1" id="layer" xmlns="http://www.w3.org/2000/svg" xmlns:xlink="http://www.w3.org/1999/xlink" x="0px" y="0px"
	 viewBox="0 0 121.38 121.38" style="enable-background:new 0 0 121.38 121.38;" xml:space="preserve">
<style type="text/css">
	.st0{display:none;}
	.st1{display:inline;fill:#4D9FD0;}
	.st2{fill:#CDD6DB;}
	.st3{fill:#FAFAF5;}
	.st4{fill:#E1E4F2;}
	.st5{fill:#FFFDF6;}
	.st6{fill:#FFB494;}
	.st7{fill:#544C02;}
	.st8{fill:#1C1A1A;}
	.st9{fill:#484246;}
	.st10{fill:#CDAD66;}
	.st11{fill:#E09200;}
	.st12{fill:#FFE66B;}
	.st13{fill:#8C9FA9;}
	.st14{fill:#B4CDD2;}
</style>
<g class="st0">
	<rect x="0" y="0" class="st1" width="121.38" height="121.38"/>
</g>
<g>
	<path class="st2" d="M51.11,106.87c-6.63,3.83-17.41,3.81-24.08-0.04c-6.67-3.85-6.7-10.07-0.08-13.9s17.41-3.81,24.08,0.04
		C57.71,96.82,57.74,103.04,51.11,106.87z"/>
	
		<ellipse transform="matrix(5.421593e-03 -1 1 5.421593e-03 6.4395 157.0966)" class="st2" cx="82.2" cy="75.31" rx="9.83" ry="17.03"/>
	<g>
		<path class="st3" d="M90.32,73.98c-0.02,0.04-0.03,0.07-0.05,0.11c-0.42,0.77-2.01,1.05-2.01,1.05s-1.55,0.44-2.77-0.1
			s-1.29-2.07-1.29-2.07l-1.12-2.15c0,0-0.01,0.01-0.03,0.02c-0.09,0.08-0.45,0.34-1.19,0.34l-0.01,0c-0.87,0-2.95-0.36-3.18-0.78
			c-0.23-0.43-0.35-1.59-0.34-1.83c0.01-0.25-0.68-1.64-1.03-2.19c-0.35-0.55-2.94-5.44-3.13-6.99c-0.01-0.1-0.02-0.22-0.03-0.36
			c-0.11-1.88,0.26-6.68,0.34-8.81c0.09-2.27-0.02-4.45-0.25-5.04c-0.23-0.6-0.19-1.59-0.29-3.11c-0.1-1.53,0.29-4.52-0.34-3.27
			c-0.64,1.25-4.16,5.18-4.76,6.15c-0.6,0.97-0.95,1.32-1.85,1.35c-0.28,0.01-0.59-0.13-0.89-0.32c-0.67-0.43-1.29-1.15-1.29-1.15
			s0.02-0.53,0.62-1.53c0.6-1,3.11-6.83,3.41-7.47c0.3-0.64,3.61-8.9,4.08-10.35c0.47-1.45,1.35-1.95,1.47-2.18
			c0.11-0.22-0.7-2.16-1.17-4.03c-0.47-1.88-0.44-4.65,0.66-5.83c0.6-0.64,1.74-0.98,2.84-1.13c0.92-0.13,1.82-0.14,2.35-0.08
			c1.17,0.12,3.32,0.68,3.76,3.3c0.44,2.62-0.32,5.84-0.32,5.84s0.16,0.73,0.4,1.03c0.24,0.3,0.34,0.73,0.34,0.73
			c0.17,0.14,0.34,0.28,0.5,0.42c0.81,0.7,1.43,1.35,1.92,1.95c1.52,1.87,1.73,3.23,2,3.84c0.38,0.84-0.15,4.05-0.2,5.2
			c-0.04,1.15,0.48,7,0.38,8.57c-0.1,1.57-0.24,3.18-0.27,3.84c-0.02,0.66-0.34,2.43-0.23,3.75c0.11,1.33-0.02,6.04-0.27,7.15
			c-0.25,1.11,1.03,4.54,1.18,5.87c0.16,1.33,0.41,5.68,1.03,6.82c0.62,1.14,0.48,0.55,1.11,1.32S90.64,73.12,90.32,73.98z"/>
		<path class="st4" d="M87.04,34.34c-0.06,1.19-0.13,2.37-0.19,3.56c-0.07,1.29-0.15,2.62-0.68,3.81c-0.35,0.79-0.9,1.5-1.09,2.35
			c-0.17,0.83,0,1.77-0.48,2.46c-0.56,0.79-1.78,0.96-2.2,1.83c-0.31,0.64-0.1,1.54-0.66,1.98c-0.2,0.16-0.47,0.21-0.71,0.32
			c-0.34,0.16-0.62,0.45-0.88,0.73c-0.9,0.95-1.8,1.91-2.7,2.87c1.07,0.03,2.03,0.94,2.14,2c0.06,0.58-0.09,1.22,0.24,1.7
			c0.16,0.23,0.42,0.38,0.58,0.61c0.33,0.44,0.23,1.06,0.2,1.61c-0.11,1.71,0.45,3.37,1.11,4.93c0.61,1.43,0.95,2.62,1.08,4.16
			c0.04,0.54,0.14,1.08,0.25,1.61c-0.09,0.08-0.45,0.34-1.19,0.34l-0.01,0c-0.5-1.24-1.04-2.47-1.62-3.68
			c-0.49-1.01-1.02-2.02-1.72-2.89c-0.19-0.23-0.39-0.45-0.5-0.71c-0.35-0.79,0.13-1.71,0.03-2.56c-0.05-0.43-0.25-0.83-0.44-1.21
			c-0.08-0.15-0.15-0.33-0.09-0.48c0.03-0.07,0.09-0.13,0.14-0.19c0.85-0.96,0.34-3.14-0.33-4.12c-0.64,0.59-0.83,1.53-1.52,2.09
			c-0.24,0.19-0.52,0.32-0.76,0.5c-0.38,0.28-0.66,0.68-0.9,1.11c-0.11-1.88,0.26-6.68,0.34-8.81c0.09-2.27-0.02-4.45-0.25-5.04
			c-0.23-0.6-0.19-1.59-0.29-3.11c-0.1-1.53,0.29-4.52-0.34-3.27c-0.64,1.25-4.16,5.18-4.76,6.15c-0.6,0.97-0.95,1.32-1.85,1.35
			c-0.28,0.01-0.59-0.13-0.89-0.32c0.01,0,0.01-0.01,0.02-0.01c0.63-0.29,1-1.05,0.83-1.73c0.99,0.22,2.03-0.82,1.81-1.82
			c-0.04-0.19-0.12-0.38-0.09-0.58c0.05-0.35,0.43-0.53,0.77-0.6c0.34-0.07,0.72-0.07,1-0.27c0.17-0.12,0.29-0.29,0.43-0.43
			c0.59-0.6,1.56-0.76,2.05-1.44c0.39-0.54,0.39-1.25,0.37-1.92c-0.06-2.14-0.13-4.28-0.19-6.41c0.76,1.18,0.85,2.67,0.95,4.08
			c0.25,3.48,0.69,6.94,1.34,10.36c0.08,0.4,0.16,0.81,0.42,1.13c0.26,0.31,0.74,0.48,1.08,0.25c0.04-0.84,0.08-1.68,0.11-2.52
			c0.01-0.25,0.02-0.5,0.12-0.72c0.28-0.71,1.62-0.87,1.69-1.63c0.07-0.78,0.15-1.56,0.22-2.34c0.19-1.96,0.38-3.93,0.89-5.83
			c0.52-1.9,1.39-3.73,2.77-5.13c0.16,3.74-0.41,7.47-1.23,11.12c1.27-1.74,2.54-3.48,3.82-5.22c0.43-0.59,0.88-1.23,0.9-1.96
			C86.95,32.69,87.08,33.52,87.04,34.34z"/>
		<path class="st3" d="M86.07,40.3c-0.3,0.81-0.71,1.7-1.18,2.62c0,0,0,0.01-0.01,0.01c-0.53,1.02-1.14,2.07-1.78,3.07
			c0,0-0.01,0,0,0c-2.11,3.37-4.44,6.31-4.76,6.27c-0.19-0.02-0.39-0.09-0.59-0.19c-0.34-0.16-0.69-0.4-0.99-0.61
			c-0.28-0.2-0.7-0.47-0.98-0.69c-0.21-0.16-0.34-0.3-0.28-0.37c0.13-0.16,1.22-1.98,1.38-2.47c0.16-0.49,2.12-5.89,2.33-6.51
			c0.18-0.53,0.49-8.34,1.5-11.99c0.17-0.59,0.35-1.07,0.55-1.39c1.45-2.34,4.11-1.18,4.11-1.18c1.35,0.51,1.87,1.29,2.03,2.86
			c0.01,0.06,0.01,0.12,0.01,0.19C87.49,31.8,86.63,38.05,86.07,40.3z"/>
		<path class="st3" d="M67.06,46.52c-0.1,0.39-1.38,2.22-1.38,2.22s-0.59,1.71-0.82,1.89c-0.23,0.18-0.21,0.02-0.34-0.24
			c-0.12-0.24,0.26-1.48,0.3-1.61l-0.6,1.12c0,0-0.45,1-0.84,0.96c-0.37-0.03,0.12-1.53,0.16-1.66c-0.06,0.12-0.52,1.06-0.62,1.21
			c-0.11,0.16-0.25,0.47-0.65,0.18c-0.41-0.28,0-0.97,0.03-1.34c0.03-0.37,0.85-1.29,0.93-1.45c0.08-0.16-0.58,0.35-0.58,0.35
			s-0.62,1.24-0.8,1.54c-0.17,0.3-0.53-0.21-0.53-0.21s0.29-1.13,0.42-1.41c0.12-0.26,0.52-1.2,0.58-1.33
			c0.01-0.01,0.01-0.01,0.01-0.01s-0.53-0.1-0.52-0.35s0.74-0.4,1.04-0.62c0.3-0.22,1.03-0.46,1.2-0.58
			c0.17-0.12,1.15-0.33,1.15-0.33c0.81-0.03,1.61,0.49,1.61,0.49s0.18,0.4,0.24,0.77C67.08,46.27,67.09,46.41,67.06,46.52z"/>
		<path class="st5" d="M77.93,52.16c-0.05,0.13-1.44,1.53-1.44,1.53s-1.56,2.57-1.91,2.91c-0.35,0.33-0.88,0.27-0.88,0.27
			s-0.23,0.16-0.6,0.35c-0.37,0.19-0.74,0.08-0.74,0.08l-0.34,0.05l-0.15,0.02c0,0-0.28-0.2-0.25-0.41
			c0.01-0.12,0.38-0.55,0.67-0.88c0.21-0.24,0.39-0.42,0.39-0.42l-1.43,0.61c0,0-0.05-0.12-0.07-0.27
			c-0.01-0.08-0.01-0.18,0.01-0.27c0.05-0.25,2.25-1.95,2.45-2.45c0.21-0.51-0.16-1.29-0.16-1.29l-1.03,0.07l-1.39-0.33
			c0,0-0.03-0.39,0.26-0.38c0.29,0.01,1.85-0.32,2.16-0.33c0.31-0.01,2.15-0.38,2.15-0.38c0.43,0.09,1.05,0.47,1.55,0.82
			C77.62,51.8,77.95,52.11,77.93,52.16z"/>
		<path class="st3" d="M78.83,69.52c0,0-2.17,0.76-2.83,1.17c-0.67,0.41-1.18,0.82-1.27,1.57c-0.09,0.74-0.04,1.15-0.04,1.15
			s0.46,0.85,2.76,0.1c2.29-0.75,2.47-1.43,2.47-1.43l2.46-0.22c0,0,1.29-0.45,1.65-1.05c0.36-0.61,0.81-0.96,0.27-1.42
			C83.75,68.93,78.83,69.52,78.83,69.52z"/>
		<path class="st3" d="M85.36,74.01c0,0-1.32,2.12-1.98,3.15c-0.66,1.03-0.73,1.18-0.69,1.83c0.04,0.65,0.83,1.12,2.44,0.96
			c1.62-0.16,3.29-1.64,3.29-1.64s1.27-2.34,1.58-2.45c0.31-0.11,1.03-1.11,0.67-1.49c-0.36-0.39,0.2-2.01-1.06-2.15
			C88.35,72.08,85.36,74.01,85.36,74.01z"/>
		<path class="st4" d="M83.24,23.14c0.17,0.14,0.34,0.28,0.5,0.42c-0.52-0.22-1.08-0.34-1.64-0.46c-0.16,0.98-1.33,1.65-2.26,1.28
			c0.23-0.4,0.55-0.76,0.93-1.03c0.43-0.32,1.02-0.69,0.9-1.21c-0.13-0.02-0.27-0.05-0.41-0.08c0.04-0.5,0.31-0.95,0.52-1.4
			c0.65-1.4,0.73-3,0.8-4.55c0.03-0.76,0.03-1.61-0.49-2.16c-0.4-0.41-0.68-0.9-1.22-1.12c-0.62-0.25-1.26-0.41-1.92-0.49
			c-0.76-0.09-1.5,0.02-2.25-0.03c0.92-0.13,1.82-0.14,2.35-0.08c1.17,0.12,3.32,0.68,3.76,3.3c0.44,2.62-0.32,5.84-0.32,5.84
			s0.16,0.73,0.4,1.03C83.13,22.71,83.24,23.14,83.24,23.14z"/>
		<path class="st4" d="M90.32,73.98c-0.02,0.04-0.03,0.07-0.05,0.11c-0.17-0.86-0.42-1.66-1.11-2.17c-0.28-0.21-0.64-0.36-0.83-0.66
			c-0.29-0.44-0.13-1.02-0.12-1.54c0.05-1.55-1.21-3-0.87-4.51c0.07-0.3,0.19-0.57,0.22-0.87c0.03-0.37-0.09-0.73-0.21-1.08
			c-0.28-0.82-0.56-1.65-0.84-2.48c-0.15-0.43-0.3-0.86-0.42-1.3c-0.48-1.7-0.61-3.5-0.37-5.25c0.2-1.44,0.64-2.84,0.84-4.28
			c0.18-1.33,0.18-2.68,0.41-4.01c0.1-0.59,0.32-1.16,0.38-1.75c0.15-1.35,0.08-2.71,0.03-4.07c-0.02-0.68,0.07-1.45-0.04-2.11
			c-0.08-0.53-0.35-1.03-0.44-1.58c-0.08-0.55-0.04-1.12,0-1.69c0.1-1.41,0.2-2.81,0.31-4.21c0.02-0.27,0.04-0.55-0.08-0.8
			c-0.12-0.22-0.33-0.37-0.49-0.56c-0.56-0.67-0.35-1.68-0.56-2.53c-0.09-0.36-0.24-0.75-0.43-1.13c1.52,1.87,1.73,3.23,2,3.84
			c0.38,0.84-0.15,4.05-0.2,5.2c-0.04,1.15,0.48,7,0.38,8.57c-0.1,1.57-0.24,3.18-0.27,3.84c-0.02,0.66-0.34,2.43-0.23,3.75
			c0.11,1.33-0.02,6.04-0.27,7.15c-0.25,1.11,1.03,4.54,1.18,5.87c0.16,1.33,0.41,5.68,1.03,6.82c0.62,1.14,0.48,0.55,1.11,1.32
			S90.64,73.12,90.32,73.98z"/>
		<path class="st5" d="M76.36,25.2c-0.09,0.7-0.18,1.41-0.27,2.11c-0.05,0.39-0.1,0.79-0.07,1.18c0.02,0.26,0.06,0.51,0.06,0.77
			c-0.01,0.38-0.13,0.75-0.22,1.13c-0.2,0.77-0.28,1.56-0.26,2.35c-0.2,0.04-0.3-0.22-0.33-0.43c-0.07-0.64-0.14-1.29-0.21-1.93
			c-0.02-0.17-0.04-0.35-0.16-0.47c-0.12-0.12-0.37-0.11-0.42,0.05c-0.16-0.71-0.22-1.45-0.16-2.19c-0.37,0.15-0.45,0.63-0.67,0.96
			c-0.15,0.23-0.36,0.4-0.54,0.6c-1.07,1.16-0.92,2.99-1.66,4.38c-0.23,0.44-0.55,0.83-0.74,1.28c-0.34,0.79-0.29,1.69-0.32,2.55
			c-0.02,0.73-0.11,1.5-0.57,2.09c-0.44,0.55-0.72,1.2-1.22,1.72c-0.1,0.11-0.22,0.23-0.21,0.38c0.01,0.07,0.04,0.13,0.05,0.2
			c0.03,0.17-0.06,0.34-0.16,0.48c-0.17,0.25-0.36,0.49-0.57,0.7c-0.33,0.34-0.74,0.75-0.61,1.21c0.05,0.18,0.2,0.38,0.1,0.55
			c-0.12,0.21-0.44,0.11-0.61-0.06c-0.17-0.16-0.34-0.39-0.58-0.37c-0.04-0.5,0.29-0.94,0.52-1.38c0.46-0.89,0.54-1.93,0.96-2.83
			c0.14-0.3,0.31-0.58,0.45-0.88c0.4-0.84,0.52-1.81,1.05-2.58c0.15-0.22,0.33-0.41,0.48-0.63c0.24-0.35,0.38-0.76,0.52-1.16
			c0.58-1.63,1.15-3.26,1.73-4.9c0.73-2.07,2.45-3.86,4.16-5.25C75.95,25.06,76.2,25.03,76.36,25.2z"/>
		<path class="st4" d="M79.34,21.58c-0.26,0.41-0.57,0.89-0.4,1.34c0.04,0.1,0.1,0.2,0.14,0.3c0.23,0.56-0.13,1.17-0.48,1.66
			c0.7-0.59,0.72-1.66,1.16-2.46c0.26-0.48,0.67-0.87,0.92-1.35c0.19-0.39,0.27-0.84,0.33-1.27c0.08-0.61,0.3-1.48,0.17-2.09
			c-0.03-0.12-0.1-0.42-0.32-0.33c-0.14,0.06-0.14,0.6-0.16,0.74C80.47,19.33,80.01,20.52,79.34,21.58z"/>
		<path class="st5" d="M81.99,14.97c-0.08-0.2-0.2-0.39-0.32-0.57c-0.21-0.32-0.43-0.64-0.74-0.87c-0.42-0.33-0.95-0.47-1.46-0.61
			c-0.34-0.09-0.69-0.18-1.04-0.19c-0.56-0.01-1.1,0.2-1.65,0.21c-0.29,0.01-0.64-0.02-0.82,0.21c0.34,0.08,0.68,0.16,1.01,0.24
			c0.09,0.02,0.18,0.04,0.25,0.1c0.07,0.05,0.11,0.12,0.16,0.2c0.35,0.62,0.4,1.36,0.43,2.07c0.11,2.33,0.16,4.65,0.13,6.98
			c0.53-1.53,1.13-3.04,1.79-4.53c0.19-0.44,0.4-1.12,0.85-1.36c0.39-0.2,1.18-0.25,1.49-0.55C82.34,16.04,82.11,15.28,81.99,14.97z
			"/>
		<path class="st5" d="M84.08,24.78c-0.31-0.29-0.68-0.57-1.1-0.6c-0.71-0.05-1.29,0.63-1.44,1.32c-0.68-0.07-1.31,0.35-1.87,0.75
			c-0.09,0.06-0.18,0.13-0.25,0.21c-0.08,0.09-0.13,0.2-0.18,0.31c-0.67,1.4-1.4,2.79-2.24,4.09c-0.28,0.43-0.57,0.86-0.66,1.36
			c-0.04,0.25-0.04,0.51-0.03,0.76c0.02,0.56,0.04,1.12,0.06,1.67c0.56-0.41,1.12-0.82,1.54-1.38c0.24-0.32,0.42-0.69,0.6-1.05
			c0.85-1.71,1.7-3.41,2.55-5.12c0.22,0.15,0.54,0.15,0.75-0.01c0.02,0.62,0.04,1.25,0.06,1.87c0.57-0.63,1.19-1.22,1.83-1.77
			c0.33,0.62,0.27,1.38,0.02,2.03c-0.25,0.65-0.67,1.22-1.06,1.81c-0.83,1.27-1.52,2.69-1.68,4.22c-0.16,1.55-0.03,3.14-0.11,4.7
			c-0.01,0.31-0.03,0.62-0.12,0.92c-0.09,0.32-0.27,0.61-0.4,0.92c-0.32,0.71-0.45,1.49-0.65,2.24c-0.31,1.13-0.81,2.2-1.32,3.26
			c-0.26,0.53-0.53,1.07-0.58,1.66c0.97,0.06,1.81-0.67,2.43-1.43c0.19-0.23,0.37-0.47,0.6-0.64c0.16-0.12,0.35-0.21,0.53-0.3
			c0.87-0.48,1.46-1.25,1.97-2.08c0.26-0.42,0.56-0.85,0.77-1.29c0.24-0.51,0.37-1.08,0.61-1.6c0.75-1.6,1-3.36,1.25-5.11
			c0.27-1.83,0.45-3.67,0.51-5.52c0.03-0.77,0.04-1.55-0.15-2.3c-0.2-0.77-0.66-1.42-0.93-2.16C85.13,25.82,84.62,25.28,84.08,24.78
			z"/>
		<path class="st4" d="M78.02,45.6c-0.21,0.56-0.34,1.15-0.48,1.73c-0.19,0.78-0.75,1.45-1.13,2.16c-0.22,0.42-0.44,0.85-0.63,1.29
			c-0.21-0.16-0.34-0.3-0.28-0.37c0.13-0.16,1.22-1.98,1.38-2.47c0.16-0.49,2.12-5.89,2.33-6.51c0.18-0.53,0.49-8.34,1.5-11.99
			c0.15,0.46,0.05,1.04-0.05,1.46c-0.11,0.48-0.05,0.94-0.13,1.42c-0.13,0.73-0.31,1.45-0.43,2.18c-0.52,3.1,0.01,6.41-1.24,9.3
			C78.59,44.41,78.25,44.99,78.02,45.6z"/>
		<path class="st3" d="M78.89,50.87c1.35-1.66,2.93-3.16,4.21-4.86c-2.11,3.37-4.44,6.31-4.76,6.27c-0.19-0.02-0.39-0.09-0.59-0.19
			C78.19,51.75,78.54,51.29,78.89,50.87z"/>
		<path class="st3" d="M86.07,40.3c-0.3,0.81-0.71,1.7-1.18,2.62c1.15-2.69,1.54-5.7,1.78-8.64c0.12-1.47,0.22-2.98,0.74-4.34
			C87.49,31.8,86.63,38.05,86.07,40.3z"/>
		<path class="st5" d="M80.97,50.84c-0.35,0.39-0.7,0.78-1.05,1.18c0.54,1.1,1.08,2.19,1.61,3.28c0.08-0.06,0.12-0.16,0.09-0.26
			c-0.07,1.87-0.68,3.69-0.64,5.57c0.03,1.18,0.32,2.33,0.69,3.44c0.18,0.54,0.39,1.07,0.59,1.61c0.21,0.55,0.59,0.83,1.05,1.18
			c0.11,0.08,0.22,0.17,0.29,0.29c0.11,0.21,0.03,0.45,0.02,0.68c-0.09,1.16,1.2,2.06,1.21,3.23c0,0.53-0.17,1.07,0.09,1.54
			c0.08,0.16,0.21,0.29,0.32,0.42c0.23,0.25,0.46,0.5,0.69,0.75c0.16,0.17,0.32,0.35,0.54,0.44c0.22,0.09,0.46,0.08,0.7,0.06
			c0.75-0.04,1.5-0.09,2.26-0.14c-0.04-0.94-1.42-1.15-1.88-1.97c-0.39-0.7,0.02-1.58-0.08-2.38c-0.11-0.97-0.96-1.72-1.19-2.67
			c-0.07-0.28-0.08-0.58-0.07-0.87c0.02-0.83,0.16-1.65,0.12-2.48c-0.04-0.83-0.29-1.7-0.93-2.23c-0.14-0.12-0.3-0.22-0.39-0.37
			c-0.11-0.17-0.12-0.39-0.12-0.59c-0.12-3.01-0.23-6.03,0.08-9.03c0.26-2.5,0.83-4.96,1.39-7.41c-1.46,2.12-2.25,4.67-3.87,6.67
			c-0.16,0.19-0.32,0.38-0.54,0.5c-0.55,0.3-1.35,0.12-1.75,0.61L80.97,50.84z"/>
		<path class="st4" d="M72.67,55.66l-1.43,0.61c0,0-0.05-0.12-0.07-0.27c0.18-0.04,0.32-0.07,0.37-0.09c0.19-0.06,1.6-0.75,1.6-0.75
			l1.25-0.84l-0.77,0.74l-1.34,1.03C72.5,55.85,72.67,55.66,72.67,55.66z"/>
		<path class="st4" d="M77.93,52.16c-0.05,0.13-1.44,1.53-1.44,1.53s-1.56,2.57-1.91,2.91c-0.35,0.33-0.88,0.27-0.88,0.27
			s-0.23,0.16-0.6,0.35c-0.37,0.19-0.74,0.08-0.74,0.08l-0.34,0.05c0.52-0.15,1.61-1.16,1.61-1.16l1.44-1.46l-1.18,1.64l0.84-0.36
			c0,0,0.87-1.35,1.03-1.59c0.15-0.24,0.96-1.37,1.18-1.74c0.14-0.23,0.2-0.82,0.22-1.21C77.62,51.8,77.95,52.11,77.93,52.16z"/>
		<path class="st4" d="M67.06,46.52c-0.1,0.39-1.38,2.22-1.38,2.22s-0.59,1.71-0.82,1.89c-0.23,0.18-0.21,0.02-0.34-0.24
			c-0.12-0.24,0.26-1.48,0.3-1.61l-0.6,1.12c0,0-0.45,1-0.84,0.96c-0.37-0.03,0.12-1.53,0.16-1.66c-0.06,0.12-0.52,1.06-0.62,1.21
			c-0.11,0.16-0.25,0.47-0.65,0.18c-0.41-0.28,0-0.97,0.03-1.34c0.03-0.37,0.85-1.29,0.93-1.45c0.08-0.16-0.58,0.35-0.58,0.35
			s-0.62,1.24-0.8,1.54c-0.17,0.3-0.53-0.21-0.53-0.21s0.29-1.13,0.42-1.41c0.12-0.26,0.52-1.2,0.58-1.33
			c0.4-0.16,0.86-0.24,1.24-0.46c0.16-0.09,0.34-0.22,0.51-0.16c0.07,0.02,0.13,0.07,0.19,0.1c0.38,0.2,0.8-0.05,1.18-0.13
			c0.36-0.08,0.77-0.02,1.13-0.01c0.16,0.01,0.33,0.02,0.48,0.04C67.08,46.27,67.09,46.41,67.06,46.52z"/>
		<path class="st5" d="M85.05,75.24c0,0-1.77,2.11-1.87,3.12c-0.1,1.01,1.93,1.33,3.35,0.5c1.42-0.84,2.41-3.03,2.41-3.03
			s-1.74,0.1-2.33-0.11C86.01,75.51,85.05,75.24,85.05,75.24z"/>
		<path class="st5" d="M79.91,71.11c0,0-2.11,2.32-4.25,1.99c-0.61-0.39-0.33-1.17,0.06-1.51c0.38-0.34,2.27-1.47,2.27-1.47
			S78.12,70.86,79.91,71.11z"/>
		<path class="st6" d="M77.1,15.84c0,0-0.47-0.72-1.64-0.83c-1.17-0.11-1.53,0.07-1.73,0.91c-0.2,0.84,0.35,3.82,0.39,4.05
			c0.03,0.23,0.49,3.49,1.4,4.1c0.91,0.61,1.63-0.93,1.63-2.63C77.14,19.75,77.34,16.6,77.1,15.84z"/>
	</g>
	<g>
		<polygon class="st7" points="55.21,70.72 36.68,60.02 36.67,58 55.09,47.37 58.57,47.38 77.11,58.08 77.12,60.09 58.7,70.72 		"/>
		<g>
			<polygon class="st8" points="55,70.77 35.9,59.74 35.88,56.83 54.88,45.86 58.78,45.87 77.89,56.9 77.9,59.81 58.91,70.78 			"/>
			<polygon class="st9" points="55,69.23 35.9,58.2 35.88,55.28 54.88,44.32 58.78,44.32 77.89,55.35 77.9,58.27 58.91,69.23 			"/>
		</g>
		<g>
			<g>
				<polygon class="st10" points="62.99,48.06 62.99,46.79 62.39,46.45 62.39,47.72 				"/>
				<polygon class="st11" points="62.99,46.79 63.29,45.67 62.19,45.04 62.39,46.45 				"/>
				<polygon class="st11" points="62.99,48.06 62.99,46.79 62.39,46.45 62.81,48.16 				"/>
				<polygon class="st11" points="63.29,45.67 63.36,44.45 62.26,43.81 62.19,45.04 				"/>
				<polygon class="st10" points="62.81,48.16 62.81,46.89 62.21,46.54 62.21,47.81 				"/>
				<polygon class="st10" points="62.81,46.89 63.11,45.77 62.01,45.13 62.21,46.54 				"/>
				<polygon class="st10" points="63.11,45.77 63.18,44.55 62.08,43.91 62.01,45.13 				"/>
				<polygon class="st11" points="61.15,46.11 63.27,44.88 63.24,44.46 62.26,44.19 60.05,44.23 60.05,45.47 				"/>
				<polygon class="st12" points="61.15,44.87 63.36,44.45 62.26,43.81 60.05,44.23 				"/>
			</g>
			<g>
				<polygon class="st10" points="66.07,49.84 66.07,48.57 65.47,48.23 65.47,49.5 				"/>
				<polygon class="st11" points="66.07,48.57 66.37,47.45 65.27,46.82 65.47,48.23 				"/>
				<polygon class="st11" points="66.07,49.84 66.07,48.57 65.47,48.23 65.89,49.94 				"/>
				<polygon class="st11" points="66.37,47.45 66.45,46.23 65.34,45.59 65.27,46.82 				"/>
				<polygon class="st10" points="65.89,49.94 65.89,48.67 65.29,48.32 65.29,49.59 				"/>
				<polygon class="st10" points="65.89,48.67 66.19,47.55 65.09,46.91 65.29,48.32 				"/>
				<polygon class="st10" points="66.19,47.55 66.27,46.33 65.17,45.69 65.09,46.91 				"/>
				<polygon class="st11" points="64.23,47.89 66.36,46.66 66.32,46.24 65.34,45.97 63.13,46.01 63.13,47.25 				"/>
				<polygon class="st12" points="64.23,46.65 66.45,46.23 65.34,45.59 63.13,46.01 				"/>
			</g>
			<g>
				<polygon class="st10" points="69.15,51.62 69.15,50.35 68.55,50.01 68.56,51.28 				"/>
				<polygon class="st11" points="69.15,50.35 69.45,49.23 68.35,48.6 68.55,50.01 				"/>
				<polygon class="st11" points="69.15,51.62 69.15,50.35 68.55,50.01 68.98,51.72 				"/>
				<polygon class="st11" points="69.45,49.23 69.53,48.01 68.43,47.37 68.35,48.6 				"/>
				<polygon class="st10" points="68.98,51.72 68.97,50.45 68.37,50.1 68.38,51.37 				"/>
				<polygon class="st10" points="68.97,50.45 69.28,49.33 68.17,48.69 68.37,50.1 				"/>
				<polygon class="st10" points="69.28,49.33 69.35,48.11 68.25,47.47 68.17,48.69 				"/>
				<polygon class="st11" points="67.31,49.66 69.44,48.44 69.41,48.02 68.43,47.75 66.21,47.79 66.21,49.03 				"/>
				<polygon class="st12" points="67.31,48.43 69.53,48.01 68.43,47.37 66.21,47.79 				"/>
			</g>
			<g>
				<polygon class="st10" points="72.24,53.4 72.23,52.13 71.63,51.79 71.64,53.06 				"/>
				<polygon class="st11" points="72.23,52.13 72.54,51.01 71.44,50.38 71.63,51.79 				"/>
				<polygon class="st11" points="72.24,53.4 72.23,52.13 71.63,51.79 72.06,53.5 				"/>
				<polygon class="st11" points="72.54,51.01 72.61,49.79 71.51,49.15 71.44,50.38 				"/>
				<polygon class="st10" points="72.06,53.5 72.05,52.23 71.45,51.88 71.46,53.15 				"/>
				<polygon class="st10" points="72.05,52.23 72.36,51.11 71.26,50.47 71.45,51.88 				"/>
				<polygon class="st10" points="72.36,51.11 72.43,49.88 71.33,49.25 71.26,50.47 				"/>
				<polygon class="st11" points="70.39,51.44 72.52,50.22 72.49,49.8 71.51,49.53 69.29,49.57 69.29,50.81 				"/>
				<polygon class="st12" points="70.39,50.21 72.61,49.79 71.51,49.15 69.29,49.57 				"/>
			</g>
			<g>
				<polygon class="st10" points="75.32,55.18 75.31,53.91 74.71,53.56 74.72,54.83 				"/>
				<polygon class="st11" points="75.31,53.91 75.62,52.79 74.52,52.15 74.71,53.56 				"/>
				<polygon class="st11" points="75.32,55.18 75.31,53.91 74.71,53.56 75.14,55.28 				"/>
				<polygon class="st11" points="75.62,52.79 75.69,51.57 74.59,50.93 74.52,52.15 				"/>
				<polygon class="st10" points="75.14,55.28 75.13,54.01 74.53,53.66 74.54,54.93 				"/>
				<polygon class="st10" points="75.13,54.01 75.44,52.89 74.34,52.25 74.53,53.66 				"/>
				<polygon class="st10" points="75.44,52.89 75.51,51.66 74.41,51.03 74.34,52.25 				"/>
				<polygon class="st11" points="73.48,53.22 75.6,52 75.57,51.58 74.59,51.31 72.38,51.35 72.38,52.59 				"/>
				<polygon class="st12" points="73.48,51.99 75.69,51.57 74.59,50.93 72.38,51.35 				"/>
			</g>
			<g>
				<polygon class="st10" points="78.4,56.96 78.39,55.69 77.8,55.34 77.8,56.61 				"/>
				<polygon class="st11" points="78.39,55.69 78.7,54.57 77.6,53.93 77.8,55.34 				"/>
				<polygon class="st11" points="78.4,56.96 78.39,55.69 77.8,55.34 78.22,57.06 				"/>
				<polygon class="st11" points="78.7,54.57 78.77,53.35 77.67,52.71 77.6,53.93 				"/>
				<polygon class="st10" points="78.22,57.06 78.22,55.79 77.62,55.44 77.62,56.71 				"/>
				<polygon class="st10" points="78.22,55.79 78.52,54.67 77.42,54.03 77.62,55.44 				"/>
				<polygon class="st10" points="78.52,54.67 78.59,53.44 77.49,52.81 77.42,54.03 				"/>
				<polygon class="st11" points="76.56,55 78.68,53.78 78.65,53.35 77.67,53.09 75.46,53.13 75.46,54.37 				"/>
				<polygon class="st12" points="76.56,53.76 78.77,53.35 77.67,52.71 75.46,53.13 				"/>
			</g>
		</g>
		<g>
			<g>
				<polygon class="st10" points="51.05,47.84 51.05,46.57 51.65,46.23 51.65,47.5 				"/>
				<polygon class="st11" points="51.05,46.57 50.75,45.45 51.85,44.82 51.65,46.23 				"/>
				<polygon class="st11" points="51.05,47.84 51.05,46.57 51.65,46.23 51.23,47.94 				"/>
				<polygon class="st11" points="50.75,45.45 50.67,44.23 51.78,43.59 51.85,44.82 				"/>
				<polygon class="st10" points="51.23,47.94 51.23,46.67 51.83,46.32 51.83,47.59 				"/>
				<polygon class="st10" points="51.23,46.67 50.93,45.55 52.03,44.91 51.83,46.32 				"/>
				<polygon class="st10" points="50.93,45.55 50.85,44.33 51.95,43.69 52.03,44.91 				"/>
				<polygon class="st11" points="52.89,45.88 50.76,44.66 50.8,44.24 51.78,43.97 53.99,44.01 53.99,45.25 				"/>
				<polygon class="st12" points="52.89,44.65 50.67,44.23 51.78,43.59 53.99,44.01 				"/>
			</g>
			<g>
				<polygon class="st10" points="47.97,49.62 47.97,48.35 48.57,48.01 48.56,49.28 				"/>
				<polygon class="st11" points="47.97,48.35 47.67,47.23 48.77,46.6 48.57,48.01 				"/>
				<polygon class="st11" points="47.97,49.62 47.97,48.35 48.57,48.01 48.14,49.72 				"/>
				<polygon class="st11" points="47.67,47.23 47.59,46.01 48.69,45.37 48.77,46.6 				"/>
				<polygon class="st10" points="48.14,49.72 48.15,48.45 48.75,48.1 48.74,49.37 				"/>
				<polygon class="st10" points="48.15,48.45 47.84,47.33 48.95,46.69 48.75,48.1 				"/>
				<polygon class="st10" points="47.84,47.33 47.77,46.11 48.87,45.47 48.95,46.69 				"/>
				<polygon class="st11" points="49.81,47.66 47.68,46.44 47.71,46.02 48.69,45.75 50.91,45.79 50.91,47.03 				"/>
				<polygon class="st12" points="49.81,46.43 47.59,46.01 48.69,45.37 50.91,45.79 				"/>
			</g>
			<g>
				<polygon class="st10" points="44.88,51.4 44.89,50.13 45.49,49.79 45.48,51.06 				"/>
				<polygon class="st11" points="44.89,50.13 44.58,49.01 45.68,48.37 45.49,49.79 				"/>
				<polygon class="st11" points="44.88,51.4 44.89,50.13 45.49,49.79 45.06,51.5 				"/>
				<polygon class="st11" points="44.58,49.01 44.51,47.79 45.61,47.15 45.68,48.37 				"/>
				<polygon class="st10" points="45.06,51.5 45.07,50.23 45.67,49.88 45.66,51.15 				"/>
				<polygon class="st10" points="45.07,50.23 44.76,49.11 45.86,48.47 45.67,49.88 				"/>
				<polygon class="st10" points="44.76,49.11 44.69,47.88 45.79,47.25 45.86,48.47 				"/>
				<polygon class="st11" points="46.73,49.44 44.6,48.22 44.63,47.8 45.61,47.53 47.83,47.57 47.83,48.81 				"/>
				<polygon class="st12" points="46.73,48.21 44.51,47.79 45.61,47.15 47.83,47.57 				"/>
			</g>
			<g>
				<polygon class="st10" points="41.8,53.18 41.81,51.91 42.41,51.56 42.4,52.83 				"/>
				<polygon class="st11" points="41.81,51.91 41.5,50.79 42.6,50.15 42.41,51.56 				"/>
				<polygon class="st11" points="41.8,53.18 41.81,51.91 42.41,51.56 41.98,53.28 				"/>
				<polygon class="st11" points="41.5,50.79 41.43,49.57 42.53,48.93 42.6,50.15 				"/>
				<polygon class="st10" points="41.98,53.28 41.99,52.01 42.59,51.66 42.58,52.93 				"/>
				<polygon class="st10" points="41.99,52.01 41.68,50.89 42.78,50.25 42.59,51.66 				"/>
				<polygon class="st10" points="41.68,50.89 41.61,49.66 42.71,49.03 42.78,50.25 				"/>
				<polygon class="st11" points="43.64,51.22 41.52,50 41.55,49.57 42.53,49.31 44.74,49.35 44.74,50.59 				"/>
				<polygon class="st12" points="43.64,49.98 41.43,49.57 42.53,48.93 44.74,49.35 				"/>
			</g>
			<g>
				<polygon class="st10" points="38.72,54.96 38.73,53.69 39.32,53.34 39.32,54.61 				"/>
				<polygon class="st11" points="38.73,53.69 38.42,52.57 39.52,51.93 39.32,53.34 				"/>
				<polygon class="st11" points="38.72,54.96 38.73,53.69 39.32,53.34 38.9,55.06 				"/>
				<polygon class="st11" points="38.42,52.57 38.35,51.35 39.45,50.71 39.52,51.93 				"/>
				<polygon class="st10" points="38.9,55.06 38.9,53.79 39.5,53.44 39.5,54.71 				"/>
				<polygon class="st10" points="38.9,53.79 38.6,52.67 39.7,52.03 39.5,53.44 				"/>
				<polygon class="st10" points="38.6,52.67 38.53,51.44 39.63,50.81 39.7,52.03 				"/>
				<polygon class="st11" points="40.56,53 38.44,51.78 38.47,51.35 39.45,51.09 41.66,51.13 41.66,52.37 				"/>
				<polygon class="st12" points="40.56,51.76 38.35,51.35 39.45,50.71 41.66,51.13 				"/>
			</g>
			<g>
				<polygon class="st10" points="35.64,56.74 35.64,55.47 36.24,55.12 36.24,56.39 				"/>
				<polygon class="st11" points="35.64,55.47 35.34,54.35 36.44,53.71 36.24,55.12 				"/>
				<polygon class="st11" points="35.64,56.74 35.64,55.47 36.24,55.12 35.82,56.84 				"/>
				<polygon class="st11" points="35.34,54.35 35.27,53.12 36.37,52.49 36.44,53.71 				"/>
				<polygon class="st10" points="35.82,56.84 35.82,55.57 36.42,55.22 36.42,56.49 				"/>
				<polygon class="st10" points="35.82,55.57 35.52,54.44 36.62,53.81 36.42,55.22 				"/>
				<polygon class="st10" points="35.52,54.44 35.45,53.22 36.55,52.59 36.62,53.81 				"/>
				<polygon class="st11" points="37.48,54.78 35.36,53.55 35.39,53.13 36.37,52.87 38.58,52.91 38.58,54.15 				"/>
				<polygon class="st12" points="37.48,53.54 35.27,53.12 36.37,52.49 38.58,52.91 				"/>
			</g>
		</g>
		<polygon class="st8" points="55.21,68.48 36.68,57.78 36.67,55.77 36.67,53.44 55.09,45.13 58.57,45.14 77.11,53.51 77.11,55.84 
			77.12,57.85 58.7,68.49 		"/>
		<polygon class="st9" points="55.21,66.15 36.68,55.45 36.67,53.44 55.09,42.81 58.57,42.81 77.11,53.51 77.12,55.52 58.7,66.16 		
			"/>
		<g>
			<g>
				<polygon class="st11" points="77.24,60.96 77.16,59.74 78.52,59.03 78.59,60.25 				"/>
				<polygon class="st11" points="77.79,63.28 77.8,62.01 78.4,61.66 77.97,63.37 				"/>
				<polygon class="st11" points="77.8,62.01 77.24,60.96 78.59,60.25 78.4,61.66 				"/>
				<polygon class="st11" points="77.6,60.14 75.38,58.86 75.38,57.62 78.7,59.5 				"/>
				<polygon class="st12" points="77.6,59.76 75.38,57.62 76.49,56.99 78.7,59.12 				"/>
				<polygon class="st10" points="77.67,60.98 77.6,59.76 78.7,59.12 78.77,60.35 				"/>
				<polygon class="st10" points="77.97,63.37 77.98,62.1 78.57,61.76 78.57,63.03 				"/>
				<polygon class="st10" points="77.98,62.1 77.67,60.98 78.77,60.35 78.57,61.76 				"/>
			</g>
			<g>
				<polygon class="st11" points="74.16,62.74 74.08,61.52 75.44,60.81 75.51,62.03 				"/>
				<polygon class="st11" points="74.71,65.06 74.71,63.79 75.31,63.44 74.89,65.15 				"/>
				<polygon class="st11" points="74.71,63.79 74.16,62.74 75.51,62.03 75.31,63.44 				"/>
				<polygon class="st11" points="74.52,61.92 72.3,60.64 72.3,59.4 75.62,61.28 				"/>
				<polygon class="st12" points="74.52,61.54 72.3,59.4 73.4,58.77 75.62,60.9 				"/>
				<polygon class="st10" points="74.59,62.76 74.52,61.54 75.62,60.9 75.69,62.13 				"/>
				<polygon class="st10" points="74.89,65.15 74.89,63.88 75.49,63.54 75.49,64.81 				"/>
				<polygon class="st10" points="74.89,63.88 74.59,62.76 75.69,62.13 75.49,63.54 				"/>
			</g>
			<g>
				<polygon class="st11" points="71.07,64.52 71,63.29 72.36,62.59 72.43,63.81 				"/>
				<polygon class="st11" points="71.63,66.84 71.63,65.57 72.23,65.22 71.81,66.93 				"/>
				<polygon class="st11" points="71.63,65.57 71.07,64.52 72.43,63.81 72.23,65.22 				"/>
				<polygon class="st11" points="71.44,63.7 69.22,62.42 69.22,61.18 72.54,63.06 				"/>
				<polygon class="st12" points="71.44,63.32 69.22,61.18 70.32,60.54 72.54,62.68 				"/>
				<polygon class="st10" points="71.51,64.54 71.44,63.32 72.54,62.68 72.61,63.91 				"/>
				<polygon class="st10" points="71.81,66.93 71.81,65.66 72.41,65.32 72.41,66.59 				"/>
				<polygon class="st10" points="71.81,65.66 71.51,64.54 72.61,63.91 72.41,65.32 				"/>
			</g>
			<g>
				<polygon class="st11" points="67.99,66.3 67.92,65.07 69.28,64.37 69.35,65.59 				"/>
				<polygon class="st11" points="68.55,68.61 68.55,67.34 69.15,67 68.73,68.71 				"/>
				<polygon class="st11" points="68.55,67.34 67.99,66.3 69.35,65.59 69.15,67 				"/>
				<polygon class="st11" points="68.35,65.48 66.14,64.2 66.14,62.96 69.45,64.84 				"/>
				<polygon class="st12" points="68.35,65.1 66.14,62.96 67.24,62.32 69.45,64.46 				"/>
				<polygon class="st10" points="68.43,66.32 68.35,65.1 69.45,64.46 69.53,65.68 				"/>
				<polygon class="st10" points="68.73,68.71 68.73,67.44 69.33,67.1 69.32,68.37 				"/>
				<polygon class="st10" points="68.73,67.44 68.43,66.32 69.53,65.68 69.33,67.1 				"/>
			</g>
			<g>
				<polygon class="st11" points="64.91,68.08 64.84,66.85 66.19,66.14 66.27,67.37 				"/>
				<polygon class="st11" points="65.46,70.39 65.47,69.12 66.07,68.78 65.64,70.49 				"/>
				<polygon class="st11" points="65.47,69.12 64.91,68.08 66.27,67.37 66.07,68.78 				"/>
				<polygon class="st11" points="65.27,67.25 63.06,65.98 63.06,64.74 66.37,66.62 				"/>
				<polygon class="st12" points="65.27,66.88 63.06,64.74 64.16,64.1 66.37,66.24 				"/>
				<polygon class="st10" points="65.34,68.1 65.27,66.88 66.37,66.24 66.45,67.46 				"/>
				<polygon class="st10" points="65.64,70.49 65.65,69.22 66.25,68.87 66.24,70.14 				"/>
				<polygon class="st10" points="65.65,69.22 65.34,68.1 66.45,67.46 66.25,68.87 				"/>
			</g>
			<g>
				<polygon class="st11" points="61.83,69.85 61.76,68.63 63.11,67.92 63.18,69.15 				"/>
				<polygon class="st11" points="62.38,72.17 62.39,70.9 62.99,70.56 62.56,72.27 				"/>
				<polygon class="st11" points="62.39,70.9 61.83,69.85 63.18,69.15 62.99,70.56 				"/>
				<polygon class="st11" points="62.19,69.03 59.98,67.76 59.98,66.52 63.29,68.4 				"/>
				<polygon class="st12" points="62.19,68.66 59.98,66.52 61.08,65.88 63.29,68.02 				"/>
				<polygon class="st10" points="62.26,69.88 62.19,68.66 63.29,68.02 63.36,69.24 				"/>
				<polygon class="st10" points="62.56,72.27 62.57,71 63.17,70.65 63.16,71.92 				"/>
				<polygon class="st10" points="62.57,71 62.26,69.88 63.36,69.24 63.17,70.65 				"/>
			</g>
		</g>
		<g>
			<g>
				<polygon class="st11" points="36.8,61.02 36.87,59.8 35.52,59.09 35.45,60.32 				"/>
				<polygon class="st11" points="36.25,63.34 36.24,62.07 35.64,61.73 36.07,63.44 				"/>
				<polygon class="st11" points="36.24,62.07 36.8,61.02 35.45,60.32 35.64,61.73 				"/>
				<polygon class="st11" points="36.44,60.2 38.65,58.92 38.65,57.69 35.34,59.57 				"/>
				<polygon class="st12" points="36.44,59.83 38.65,57.69 37.55,57.05 35.34,59.19 				"/>
				<polygon class="st10" points="36.37,61.05 36.44,59.83 35.34,59.19 35.27,60.41 				"/>
				<polygon class="st10" points="36.07,63.44 36.06,62.17 35.46,61.82 35.47,63.09 				"/>
				<polygon class="st10" points="36.06,62.17 36.37,61.05 35.27,60.41 35.46,61.82 				"/>
			</g>
			<g>
				<polygon class="st11" points="39.88,62.8 39.96,61.58 38.6,60.87 38.53,62.09 				"/>
				<polygon class="st11" points="39.33,65.12 39.32,63.85 38.72,63.51 39.15,65.22 				"/>
				<polygon class="st11" points="39.32,63.85 39.88,62.8 38.53,62.09 38.72,63.51 				"/>
				<polygon class="st11" points="39.52,61.98 41.73,60.7 41.73,59.47 38.42,61.35 				"/>
				<polygon class="st12" points="39.52,61.6 41.73,59.47 40.63,58.83 38.42,60.97 				"/>
				<polygon class="st10" points="39.45,62.83 39.52,61.6 38.42,60.97 38.35,62.19 				"/>
				<polygon class="st10" points="39.15,65.22 39.14,63.95 38.55,63.6 38.55,64.87 				"/>
				<polygon class="st10" points="39.14,63.95 39.45,62.83 38.35,62.19 38.55,63.6 				"/>
			</g>
			<g>
				<polygon class="st11" points="42.96,64.58 43.04,63.36 41.68,62.65 41.61,63.87 				"/>
				<polygon class="st11" points="42.41,66.9 42.41,65.63 41.81,65.28 42.23,67 				"/>
				<polygon class="st11" points="42.41,65.63 42.96,64.58 41.61,63.87 41.81,65.28 				"/>
				<polygon class="st11" points="42.6,63.76 44.82,62.48 44.82,61.25 41.5,63.13 				"/>
				<polygon class="st12" points="42.6,63.38 44.82,61.25 43.72,60.61 41.5,62.75 				"/>
				<polygon class="st10" points="42.53,64.61 42.6,63.38 41.5,62.75 41.43,63.97 				"/>
				<polygon class="st10" points="42.23,67 42.23,65.73 41.63,65.38 41.63,66.65 				"/>
				<polygon class="st10" points="42.23,65.73 42.53,64.61 41.43,63.97 41.63,65.38 				"/>
			</g>
			<g>
				<polygon class="st11" points="46.05,66.36 46.12,65.14 44.76,64.43 44.69,65.65 				"/>
				<polygon class="st11" points="45.49,68.68 45.49,67.41 44.89,67.06 45.31,68.78 				"/>
				<polygon class="st11" points="45.49,67.41 46.05,66.36 44.69,65.65 44.89,67.06 				"/>
				<polygon class="st11" points="45.68,65.54 47.9,64.26 47.9,63.02 44.58,64.91 				"/>
				<polygon class="st12" points="45.68,65.16 47.9,63.02 46.8,62.39 44.58,64.53 				"/>
				<polygon class="st10" points="45.61,66.39 45.68,65.16 44.58,64.53 44.51,65.75 				"/>
				<polygon class="st10" points="45.31,68.78 45.31,67.51 44.71,67.16 44.71,68.43 				"/>
				<polygon class="st10" points="45.31,67.51 45.61,66.39 44.51,65.75 44.71,67.16 				"/>
			</g>
			<g>
				<polygon class="st11" points="49.13,68.14 49.2,66.92 47.84,66.21 47.77,67.43 				"/>
				<polygon class="st11" points="48.57,70.46 48.57,69.19 47.97,68.84 48.39,70.56 				"/>
				<polygon class="st11" points="48.57,69.19 49.13,68.14 47.77,67.43 47.97,68.84 				"/>
				<polygon class="st11" points="48.77,67.32 50.98,66.04 50.98,64.8 47.67,66.68 				"/>
				<polygon class="st12" points="48.77,66.94 50.98,64.8 49.88,64.17 47.67,66.31 				"/>
				<polygon class="st10" points="48.69,68.16 48.77,66.94 47.67,66.31 47.59,67.53 				"/>
				<polygon class="st10" points="48.39,70.56 48.39,69.29 47.79,68.94 47.8,70.21 				"/>
				<polygon class="st10" points="48.39,69.29 48.69,68.16 47.59,67.53 47.79,68.94 				"/>
			</g>
			<g>
				<polygon class="st11" points="52.21,69.92 52.28,68.7 50.93,67.99 50.85,69.21 				"/>
				<polygon class="st11" points="51.66,72.24 51.65,70.97 51.05,70.62 51.48,72.33 				"/>
				<polygon class="st11" points="51.65,70.97 52.21,69.92 50.85,69.21 51.05,70.62 				"/>
				<polygon class="st11" points="51.85,69.1 54.06,67.82 54.06,66.58 50.75,68.46 				"/>
				<polygon class="st12" points="51.85,68.72 54.06,66.58 52.96,65.95 50.75,68.09 				"/>
				<polygon class="st10" points="51.78,69.94 51.85,68.72 50.75,68.09 50.67,69.31 				"/>
				<polygon class="st10" points="51.48,72.33 51.47,71.06 50.87,70.72 50.88,71.99 				"/>
				<polygon class="st10" points="51.47,71.06 51.78,69.94 50.67,69.31 50.87,70.72 				"/>
			</g>
		</g>
		<g>
			<g>
				<polygon class="st11" points="63.45,72.78 62.56,72.27 62.56,71.9 64.05,72.43 				"/>
				<polygon class="st11" points="66.53,71 65.64,70.49 65.64,70.12 67.13,70.65 				"/>
				<polygon class="st11" points="69.61,69.22 68.73,68.71 68.73,68.34 70.21,68.87 				"/>
				<polygon class="st11" points="72.69,67.44 71.81,66.93 71.81,66.56 73.29,67.1 				"/>
				<polygon class="st11" points="75.77,65.66 74.89,65.15 74.89,64.78 76.37,65.32 				"/>
				<polygon class="st11" points="78.85,63.88 77.97,63.37 77.97,63 79.45,63.54 				"/>
			</g>
			<g>
				<polygon class="st12" points="63.45,72.78 62.56,71.9 63.16,71.55 64.05,72.43 				"/>
				<polygon class="st12" points="66.53,71 65.64,70.12 66.24,69.77 67.13,70.65 				"/>
				<polygon class="st12" points="69.61,69.22 68.73,68.34 69.32,68 70.21,68.87 				"/>
				<polygon class="st12" points="72.69,67.44 71.81,66.56 72.41,66.22 73.29,67.1 				"/>
				<polygon class="st12" points="75.77,65.66 74.89,64.78 75.49,64.44 76.37,65.32 				"/>
				<polygon class="st12" points="78.85,63.88 77.97,63 78.57,62.66 79.45,63.54 				"/>
			</g>
		</g>
		<g>
			<g>
				<polygon class="st11" points="50.59,72.84 51.48,72.33 51.48,71.96 49.99,72.5 				"/>
				<polygon class="st11" points="47.51,71.06 48.39,70.56 48.39,70.19 46.91,70.72 				"/>
				<polygon class="st11" points="44.43,69.29 45.31,68.78 45.31,68.41 43.83,68.94 				"/>
				<polygon class="st11" points="41.35,67.51 42.23,67 42.23,66.63 40.75,67.16 				"/>
				<polygon class="st11" points="38.27,65.73 39.15,65.22 39.15,64.85 37.67,65.38 				"/>
				<polygon class="st11" points="35.18,63.95 36.07,63.44 36.07,63.07 34.58,63.6 				"/>
			</g>
			<g>
				<polygon class="st12" points="50.59,72.84 51.48,71.96 50.88,71.62 49.99,72.5 				"/>
				<polygon class="st12" points="47.51,71.06 48.39,70.19 47.8,69.84 46.91,70.72 				"/>
				<polygon class="st12" points="44.43,69.29 45.31,68.41 44.71,68.06 43.83,68.94 				"/>
				<polygon class="st12" points="41.35,67.51 42.23,66.63 41.63,66.28 40.75,67.16 				"/>
				<polygon class="st12" points="38.27,65.73 39.15,64.85 38.55,64.5 37.67,65.38 				"/>
				<polygon class="st12" points="35.18,63.95 36.07,63.07 35.47,62.72 34.58,63.6 				"/>
			</g>
		</g>
		<path class="st13" d="M40.89,54.93l14.09,8.13c1.04,0.6,2.33,0.6,3.38,0l13.98-8.07c0.47-0.27,0.47-0.95,0-1.22l-14.09-8.13
			c-1.04-0.6-2.33-0.6-3.37,0l-13.98,8.07C40.42,53.98,40.42,54.66,40.89,54.93z"/>
		<path class="st14" d="M40.89,54.54l14.09,8.13c1.04,0.6,2.33,0.6,3.38,0l13.98-8.07c0.47-0.27,0.47-0.95,0-1.22l-14.09-8.13
			c-1.04-0.6-2.33-0.6-3.37,0l-13.98,8.07C40.42,53.59,40.42,54.26,40.89,54.54z"/>
	</g>
	<g>
		<path class="st5" d="M56.76,72.85c0.12,0.21-0.02,0.49-0.23,0.61c-0.2,0.12-0.45,0.14-0.68,0.21c-0.21,0.06-0.4,0.15-0.59,0.24
			c-0.29,0.14-0.59,0.28-0.88,0.42c-0.11,0.05-0.21,0.1-0.33,0.11c-0.12,0.01-0.25-0.04-0.3-0.14c-0.05-0.09-0.04-0.2-0.05-0.3
			c-0.03-0.3-0.28-0.53-0.51-0.72c-0.15-0.13-0.31-0.26-0.47-0.4c-0.27-0.22-0.54-0.46-0.81-0.68c-0.06-0.05-0.13-0.1-0.16-0.18
			c-0.08-0.19,0.09-0.38,0.24-0.53c0.25-0.24,0.48-0.5,0.69-0.77c0.17-0.22,0.31-0.5,0.53-0.69c0.17-0.15,0.41-0.22,0.62-0.32
			c0.32-0.15,0.65-0.32,1-0.39c0.52-0.11,1.07,0.02,1.61-0.02c0.09,0.29-0.1,0.63-0.4,0.7c-0.12,0.03-0.25,0.02-0.37,0.06
			c-0.13,0.04-0.23,0.17-0.18,0.29c0.01,0.04,0.05,0.08,0.09,0.11c0.42,0.38,0.87,0.71,1.36,1c0.03,0.02,0.06,0.04,0.1,0.06
			c0.09,0.39-0.01,0.81-0.26,1.13c-0.03,0.03-0.05,0.06-0.05,0.09C56.71,72.78,56.74,72.81,56.76,72.85z"/>
		<path class="st4" d="M56.76,72.85c0.12,0.21-0.02,0.49-0.23,0.61c-0.2,0.12-0.45,0.14-0.68,0.21c-0.21,0.06-0.4,0.15-0.59,0.24
			c-0.29,0.14-0.59,0.28-0.88,0.42c-0.11,0.05-0.21,0.1-0.33,0.11c-0.12,0.01-0.25-0.04-0.3-0.14c-0.05-0.09-0.04-0.2-0.05-0.3
			c-0.03-0.3-0.28-0.53-0.51-0.72c-0.15-0.13-0.31-0.26-0.47-0.4c0.2,0.05,0.4,0.08,0.6,0.15c0.3,0.11,0.6,0.33,0.67,0.65
			c0.03,0.11,0.02,0.23,0.06,0.34c0.04,0.11,0.14,0.21,0.25,0.2c0.15-0.02,0.2-0.21,0.22-0.36c0.17,0.07,0.39,0.11,0.5-0.03
			c0.04-0.05,0.05-0.11,0.08-0.16c0.07-0.12,0.23-0.15,0.37-0.18c0.03,0,0.05-0.01,0.07-0.03c0.08-0.08-0.13-0.22-0.07-0.33
			c0.04-0.07,0.15-0.04,0.23-0.01c0.24,0.09,0.53,0.02,0.71-0.16c0.04-0.04,0.07-0.09,0.07-0.14c0-0.04-0.03-0.09-0.06-0.13
			c-0.14-0.21-0.28-0.42-0.42-0.63c0.01,0.02,0.35,0.13,0.39,0.15c0.12,0.04,0.21,0.06,0.3-0.05c0.05-0.06,0.08-0.13,0.11-0.2
			c0.04-0.1,0.08-0.2,0.1-0.3c0.01-0.07,0.01-0.14,0.02-0.21c0.03,0.02,0.06,0.04,0.1,0.06c0.09,0.39-0.01,0.81-0.26,1.13
			c-0.03,0.03-0.05,0.06-0.05,0.09C56.71,72.78,56.74,72.81,56.76,72.85z"/>
		<path class="st4" d="M31.42,96.38c0,0-0.3,2.07-0.29,2.56c0.01,0.5,0.58,1.17,2.05,0.88c1.47-0.29,1.41-1.25,2.85-1.54
			c1.43-0.29,2.39-0.72,3.15-1.63c0.77-0.91,0.48-2.28,0.48-2.28s-2.45-0.09-2.83,0.09C36.46,94.64,31.42,96.38,31.42,96.38z"/>
		<path class="st3" d="M47.35,100.6c0,0-0.68-0.89-1.08-0.94c-0.4-0.05-2.36-0.11-2.36-0.11s-3.46,0.96-3.66,1.17
			c-0.19,0.21-1.93,0.77-2.05,1.11c-0.12,0.33-0.38,1.17-0.4,1.55c-0.01,0.39-0.17,1.44,0.65,1.77c0.83,0.34,1.32,0.36,2.46-0.19
			c1.14-0.55,1.39-0.79,1.39-0.79s1.37-0.35,2.4-0.55C45.74,103.43,47.79,102.26,47.35,100.6z"/>
		<path class="st3" d="M54.29,71.42c-0.16,0.99-0.8,1.52-1.09,1.7c-0.09,0.06-0.15,0.09-0.15,0.09s-1.94-0.77-2-0.79
			c-0.06-0.02-4.3-2.4-5.02-2.92c-0.7-0.51-1.51-1.32-1.56-1.36c0.04,0.13,0.45,1.42,0.2,1.94c-0.27,0.55-0.54,1.22-0.54,1.39
			c-0.01,0.16,0.15,1.72,0.16,1.91c0.01,0.19,1.34,10.09,1.23,12.04c-0.11,1.94-0.32,3.21-0.23,4.33c0.08,1.12-1.3,4.09-1.25,5.08
			c0.05,0.99,0.37,3.65,0.37,3.65l-0.31,1.65c0,0-0.74,1.85-1.33,2.62c-0.34,0.45-0.6,0.68-0.93,0.8c-0.23,0.08-0.49,0.11-0.84,0.11
			c-0.83,0.01-1.51,0.05-1.77-0.23c-0.16-0.16-0.54-0.38-0.83-0.56c-0.19-0.12-0.34-0.22-0.36-0.29c-0.04-0.17-0.46-0.96-0.41-1.34
			c0.06-0.37,0.37-1.16,0.38-1.45c0.01-0.29-0.21-1.6-0.22-2.06c-0.01-0.46,0.53-3.37,0.53-3.37l-0.33-3.5c0,0-0.12,4.46-0.17,4.73
			c-0.05,0.27-0.57,1.45-0.82,1.66c-0.09,0.08-0.28,0.14-0.49,0.2l0,0c-0.38,0.11-0.85,0.2-0.97,0.33c-0.19,0.2-1.49,0.09-1.8,0.04
			c-0.31-0.05-1.18-0.17-1.8-0.66c-0.62-0.5-0.5-0.91-0.5-0.91l0.58-1.2c0,0-0.07-3.25-0.04-4.15c0.03-0.91,0.34-4.95,0.37-5.44
			c0.04-0.49,0.34-3.13,0.34-3.13s-0.46-2.74-0.55-3.84c-0.09-1.09-0.26-2.03-0.26-2.03s-0.41-1.79-0.59-2.63
			c-0.17-0.83-0.79-4.43-1.25-7.84c-0.46-3.4-1.66-9.4-1.6-10.89c0.03-0.94,0.27-2.65,0.82-4.14c0.32-0.89,0.75-1.7,1.3-2.23
			c1.41-1.34,1.91-1.71,1.96-1.75l0.01,0c0,0-1.25-3.31-0.37-5.01c0.59-1.12,1.64-2.69,3.5-3.61c0-0.01,0.01,0,0.01,0
			c0.97-0.48,2.15-0.79,3.59-0.77c1.23,0.31,1.94,1.37,2.34,2.58c0.36,1.08,0.47,2.28,0.48,3.14c0.02,1.82-1.23,5.58-1.28,5.7
			c-0.04,0.12-0.14,1.61-0.14,1.61s-0.24,1.03,0.2,1.46c0.09,0.09,0.26,0.23,0.46,0.39c0.76,0.6,2.04,1.52,2.04,1.52
			s6.37,10.56,6.84,11.11c0.48,0.56,3.71,4.45,3.71,4.45S54.5,70.12,54.29,71.42z"/>
		<path class="st4" d="M32.83,84.87l-0.37,3.46c0,0,0.31,3.67,0.41,4.17c0.11,0.5-0.03,0.93-0.05,1.55
			c-0.02,0.62-0.17,1.42-0.26,2.1c-0.09,0.68-0.63,0.99-0.63,0.99c-0.62-0.5-0.5-0.91-0.5-0.91l0.58-1.2c0,0-0.07-3.25-0.04-4.15
			c0.03-0.91,0.34-4.95,0.37-5.44c0.04-0.49,0.34-3.13,0.34-3.13s-0.46-2.74-0.55-3.84c-0.09-1.09-0.26-2.03-0.26-2.03
			s-0.41-1.79-0.59-2.63c-0.17-0.83-0.79-4.43-1.25-7.84c-0.46-3.4-1.66-9.4-1.6-10.89c0.05-1.49,0.63-4.94,2.12-6.38
			c1.41-1.34,1.91-1.71,1.96-1.75l-1.82,2.46c0,0-1.05,1.78-1.43,3.87c-0.37,2.1-0.15,4.2-0.15,4.2s1.05,3.79,1.19,4.26
			c0.14,0.47,0.18,1.93,0.18,1.93l0.23,3.14l0.85,3.25l-0.1,2.73l1,1.4l-0.53,0.2l0.16,1.87l0.54,1.97l0.73,2.39l-0.54-0.46
			l0.16,2.55l0.56,3.62L32.83,84.87z"/>
		<path class="st4" d="M39.09,101.02l1.6,0.49c0,0-0.88,0.47-2.06,0.48c-1.18,0.02-0.24,0.85-0.24,0.85
			c-0.19-0.12-0.34-0.22-0.36-0.29c-0.04-0.17-0.46-0.96-0.41-1.34c0.06-0.37,0.37-1.16,0.38-1.45c0.01-0.29-0.21-1.6-0.22-2.06
			c-0.01-0.46,0.53-3.37,0.53-3.37l-0.33-3.5c0,0-0.12,4.46-0.17,4.73c-0.05,0.27-0.57,1.45-0.82,1.66
			c-0.09,0.08-0.28,0.14-0.49,0.2c0.26-0.09,0.02-1.08,0.02-1.08s0.11-1.3,0.24-1.67c0.14-0.37,0.43-1.6,0.43-1.6
			s-0.58-3.06-0.8-3.75c-0.22-0.69,0.11-1.55,0.11-1.55s0.13-1.85,0.03-2.42c-0.1-0.56-0.68-1.82-0.91-2.45
			c-0.23-0.63,0.25-1.73,0.25-1.73s-0.2-1.5-0.38-1.75c-0.17-0.24-0.75-2.57-0.82-2.86l0.62,1.67l1.64,0.93l1.14,0.91l0.33,1.25
			c0,0,0.52-0.79,0.54-1.28c0.02-0.5,1.07-2.26,1.07-2.26l-0.04,2.85l-1.08,2.5l-0.08,2.17l1.31-1.94l-0.97,4.62l-0.07,2.04
			c0,0,0.11,3.97,0.1,4.16c-0.01,0.18-0.5,3.57-0.51,3.89c-0.01,0.31-0.05,1.55-0.05,1.55L39.09,101.02z"/>
		<path class="st4" d="M53.2,73.12c-0.09,0.06-0.15,0.09-0.15,0.09s-1.94-0.77-2-0.79c-0.06-0.02-4.3-2.4-5.02-2.92
			c-0.7-0.51-1.51-1.32-1.56-1.36c0.04,0.13,0.45,1.42,0.2,1.94c-0.27,0.55-0.54,1.22-0.54,1.39c-0.01,0.16,0.15,1.72,0.16,1.91
			c0.01,0.19,1.34,10.09,1.23,12.04c-0.11,1.94-0.32,3.21-0.23,4.33c0.08,1.12-1.3,4.09-1.25,5.08c0.05,0.99,0.37,3.65,0.37,3.65
			l-0.31,1.65c0,0-0.74,1.85-1.33,2.62c-0.34,0.45-0.6,0.68-0.93,0.8c-0.08-0.13-0.12-0.23-0.08-0.27c0.19-0.15,0.55-0.75,0.55-0.75
			s0.14-0.34,0.43-0.73c0.3-0.4,0.62-0.85,0.66-1.1c0.04-0.25,0.45-2.37,0.28-2.78c-0.17-0.41-0.52-1.23-0.49-1.91
			c0.02-0.68,0.39-0.33,0.39-0.33s-0.01-1.49,0.07-1.86c0.07-0.37,0.55-1.65,0.57-2.09c0.02-0.44-0.48-1.56-0.51-2.28
			c-0.04-0.72,0.46-0.85,0.68-0.94c0.22-0.09,0.52,0.98,0.62,0.98c0.09,0,0.11-1.43,0.11-2.1c-0.01-0.69-0.87-8.16-0.84-8.9
			c0.03-0.74-0.52-3.83-0.51-4.08c0.01-0.25-0.57-1.47-0.77-1.98c-0.2-0.5,0.11-0.34,0.11-0.56c0.01-0.22,0.12-0.77,0.16-1.14
			c0.04-0.38,0.11-1.48,0.09-1.8c-0.02-0.31-0.62-0.86-0.76-1.17c-0.15-0.31-0.99-0.99-0.99-0.99s-0.47-1.88-0.45-2.25
			c0.01-0.38-0.82-2.17-1.06-2.43c-0.22-0.24-1.17-1.59-1.29-1.77l1.01,0.79l-0.25-2.74c0,0,1.15,2.62,1.38,3.09
			s1.18,2.46,1.18,2.46l1.52,2.51l1.83,1.92l2.15,1.32c0,0,2.1,1.31,2.23,1.28c0.13-0.04,1.81,1.34,1.81,1.34L53.2,73.12z"/>
		<path class="st5" d="M42.19,53.8c-0.38-0.22-0.77-0.33-0.98-0.79c-0.07-0.15-0.14-0.34-0.3-0.37c-0.29,0.63-1.23,0.87-1.32,1.56
			c-0.01,0.08-0.01,0.15-0.03,0.23c-0.07,0.21-0.31,0.3-0.51,0.4c-0.69,0.34-0.99,0.88-0.79,1.6c0.14,0.5,0.3,1.41,0.99,1.41
			c0.28,0,0.57-0.19,0.81-0.04c0.08,0.05,0.14,0.13,0.18,0.22c0.36,0.69,0.05,1.62,0.5,2.26c0.2,0.28,0.51,0.46,0.77,0.67
			c1.86,1.49,1.52,4.68,3.38,6.16c0.8,0.64,1.89,0.84,2.7,1.47c0.64,0.5,1.08,1.23,1.72,1.73c0.38,0.29,0.82,0.48,1.25,0.68
			c0.99,0.44,1.98,0.88,2.98,1.33c0.29-0.57,0.49-1.21,0.41-1.85c-0.07-0.53-0.33-1.01-0.63-1.45c-0.34-0.49-0.73-0.94-1.12-1.4
			c-0.81-0.93-1.63-1.87-2.44-2.8c-0.92-1.06-1.85-2.13-2.66-3.28c-0.86-1.22-1.57-2.54-2.17-3.92c-0.43-0.99-0.92-1.91-1.51-2.82
			c-0.26-0.4-0.74-0.71-1.14-0.96C42.23,53.82,42.21,53.81,42.19,53.8z"/>
		<path class="st4" d="M40.85,52.03c0.09,0.09,0.26,0.23,0.46,0.39c-0.57-0.02-1.15-0.05-1.72-0.07c-0.04-0.56-0.09-1.12-0.14-1.69
			c-0.77-0.14-1.62-0.26-2.28,0.17c-0.26,0.17-0.48,0.42-0.75,0.59c-0.69,0.43-1.59,0.25-2.38,0.06c0.13-0.39,0.65-0.45,1.05-0.4
			c0.4,0.04,0.88,0.1,1.14-0.22c0.16-0.19,0.18-0.47,0.32-0.67c0.2-0.3,0.61-0.38,0.97-0.41c0.67-0.07,1.35-0.09,2.03-0.07
			c0.75,0.02,0.98-0.19,1.01-0.9c0.03-0.49,0.21-0.86,0.38-1.32c0.92-2.36,0.88-4.88,0.65-7.37c0.36,1.08,0.47,2.28,0.48,3.14
			c0.02,1.82-1.23,5.58-1.28,5.7c-0.04,0.12-0.14,1.61-0.14,1.61S40.41,51.6,40.85,52.03z"/>
		<path class="st4" d="M35.64,38.32c-0.05,0.02-0.09,0.05-0.13,0.08c-0.28,0.19-0.52,0.43-0.76,0.67c-0.15,0.15-0.3,0.29-0.44,0.44
			c-0.2,0.19-0.39,0.38-0.57,0.59c-0.76,0.88-1.23,2-1.32,3.16c-0.1,1.15,0.2,2.34,0.81,3.32c0.14,0.22,0.26,0.51,0.23,0.77
			c-0.03,0.26-0.12,0.51-0.08,0.77c0.03,0.16,0.1,0.32,0.13,0.49c0.08,0.42-0.16,0.86-0.03,1.27c0.11,0.31,0.43,0.61,0.3,0.91
			c-0.32,0.05-0.63-0.12-0.94-0.17c-0.66-0.12-1.31,0.23-1.89,0.56c0.04-0.23,0.08-0.47,0.12-0.71c-0.63,0.04-1.25,0.19-1.82,0.45
			c0.32-0.89,0.75-1.7,1.3-2.23c1.41-1.34,1.91-1.71,1.96-1.75l0.01,0c0,0-1.25-3.31-0.37-5.01C32.73,40.8,33.79,39.24,35.64,38.32z
			"/>
		<path class="st5" d="M41.77,78.43c-0.07,0.44-0.47,0.79-0.47,1.23c0,0.2,0.08,0.38,0.15,0.57c0.59,1.61,0.32,3.52-0.69,4.91
			c0.54-0.47,1.08-0.93,1.63-1.4c0.38,0.81-0.27,1.7-0.77,2.45c-0.77,1.15-1.25,2.48-1.39,3.85c-0.08,0.73-0.06,1.47-0.04,2.2
			c0.05,1.97-0.37,4.03-0.52,6.02c-0.02,0.33-0.04,0.67,0.09,0.96c0.17,0.38,0.56,0.61,0.84,0.91c0.63,0.66,0.74,1.76,0.26,2.53
			c0.35,0.18,0.73-0.18,0.93-0.51c0.77-1.25,1.05-2.79,0.78-4.23c-0.11-0.57-0.3-1.14-0.35-1.72c-0.05-0.58,0.08-1.22,0.51-1.62
			c0.13-0.12,0.29-0.22,0.36-0.39c0.07-0.16,0.04-0.35,0.03-0.53c-0.05-0.86,0.47-1.68,0.4-2.53c-0.06-0.75-0.54-1.57-0.12-2.19
			c0.12-0.19,0.31-0.32,0.46-0.49c0.41-0.46,0.47-1.12,0.47-1.74c0.01-0.76-0.03-1.52-0.17-2.26c-0.11-0.59-0.28-1.16-0.41-1.74
			c-0.65-2.77-0.5-5.6-0.39-8.41c0-0.04,0-0.07-0.01-0.11c-0.05-0.11-0.22-0.08-0.31,0c-0.3,0.28-0.25,0.78-0.41,1.13
			c-0.15,0.33-0.35,0.45-0.57,0.72C41.31,76.96,41.94,77.45,41.77,78.43z"/>
		<path class="st5" d="M32.93,77.1c0.09,0.35,0.33,0.64,0.52,0.95c0.62,0.97,0.91,2.15,0.79,3.3c-0.02,0.2-0.06,0.41-0.18,0.57
			c-0.13,0.16-0.37,0.24-0.54,0.12c-0.14,0.48,0.16,0.97,0.36,1.44c0.43,0.99,0.38,2.1,0.33,3.18c-0.01,0.21-0.02,0.42-0.14,0.59
			c-0.12,0.17-0.37,0.26-0.53,0.13c0.31,3.15,0.34,6.33,0.08,9.48c0.45,0.05,0.9,0.04,1.34-0.03c0.11-0.02,0.24-0.05,0.32-0.13
			c0.08-0.08,0.1-0.19,0.13-0.3c0.19-0.91,0.39-1.82,0.58-2.72c0.11-0.5,0.21-1,0.2-1.5c-0.02-0.59-0.2-1.16-0.3-1.74
			c-0.36-1.94,0.05-3.94-0.21-5.89c-0.12-0.88-0.38-1.74-0.35-2.63c0.01-0.4,0.08-0.8,0.05-1.19c-0.07-0.86-0.59-1.61-0.83-2.44
			c-0.12-0.4-0.45-1.79-0.18-2.15c0.33-0.44,1.19-0.06,1.41,0.31c0.17,0.27,0.2,0.6,0.29,0.91c0.14,0.45,0.42,0.87,0.83,1.12
			c0.4,0.25,0.93,0.32,1.36,0.12c0.28-0.13,0.51-0.35,0.73-0.57c0.24-0.24,0.48-0.48,0.72-0.72c0.71-0.71,1.45-1.46,1.81-2.4
			c-1.13,0.5-2.51,0.08-3.65,0.54c-0.34,0.14-0.68,0.35-1.04,0.3c-0.37-0.06-0.63-0.38-0.89-0.65c-0.49-0.49-1.21-0.58-1.68-1
			c-0.34-0.3-0.46-0.83-0.84-1.16c-0.78-0.67-0.92-1.54-1.05-2.54c0.05,0.77-0.25,1.59,0.06,2.3c0.07,0.17,0.17,0.32,0.26,0.47
			c0.32,0.57,0.54,1.22,0.49,1.87C33.1,75.72,32.73,76.38,32.93,77.1z"/>
		<path class="st4" d="M32.64,61.28c0.76,2.64,1.53,5.32,3.01,7.62c0.03-0.33,0.05-0.65,0.08-0.98c0.45,0.07,0.79,0.44,1.1,0.77
			c1.46,1.51,3.33,2.61,5.36,3.16c-1.06,0.02-2.12,0.01-3.18-0.01c-0.51-0.01-1.04-0.03-1.51-0.23c-0.92-0.38-1.5-1.37-2.44-1.7
			c-0.35-0.13-0.75-0.16-1.04-0.39c-0.43-0.35-0.45-1.02-0.79-1.46c-0.18-0.24-0.45-0.4-0.64-0.63c-0.72-0.83-0.33-2.1-0.4-3.19
			c-0.04-0.61-0.23-1.2-0.37-1.8c-0.54-2.21-0.16-4.11,0.09-6.3C31.5,57.75,32.19,59.73,32.64,61.28z"/>
		<path class="st4" d="M37.93,73.44c-0.31-0.02-0.61-0.05-0.91-0.13c-0.22-0.06-0.42-0.16-0.63-0.26c-1.11-0.53-2.21-1.06-3.32-1.59
			c-0.13,0.22-0.06,0.52,0.11,0.72c0.17,0.2,0.41,0.32,0.64,0.43c0.45,0.22,0.91,0.44,1.36,0.67c0.1,0.05,0.21,0.11,0.24,0.21
			c0.03,0.09,0,0.2-0.02,0.3c-0.04,0.3,0.13,0.6,0.38,0.79c0.25,0.18,0.55,0.26,0.85,0.32c2.11,0.39,4,0.15,5.39-1.55
			c-0.1,0.12-1.59,0.01-1.87,0.04C39.41,73.46,38.68,73.5,37.93,73.44z"/>
		<path class="st5" d="M37.68,60.64c-0.76-2.21-0.93-4.52,0.39-6.75c0.13-0.21,0.27-0.42,0.36-0.65c0.27-0.67,0.11-1.43-0.05-2.14
			c-0.34-0.12-0.74-0.09-1.05,0.09c-0.35,0.19-0.59,0.54-0.92,0.77c-0.29,0.2-0.63,0.3-0.96,0.41c-0.87,0.26-1.58-0.3-2.42-0.42
			c-0.85-0.12-1.35-0.09-2.15-0.4c-0.16-0.06-0.97,2.23-1,2.47c-0.06,0.42-0.05,0.87,0.19,1.23c0.1,0.16,0.25,0.29,0.34,0.46
			c0.22,0.43,0,0.97,0.09,1.45c0.15-0.34,0.3-0.68,0.45-1.02c0.61-1.38,1.22-0.63,2.08,0.11c0.11,0.09,0.22,0.19,0.29,0.32
			c0.09,0.18,0.08,0.39,0.07,0.59c-0.03,0.45-0.05,0.91-0.08,1.36c-0.02,0.37-0.04,0.74,0.03,1.11c0.08,0.37,0.25,0.71,0.41,1.05
			c0.97,2.04,1.63,4.22,2.29,6.38c0.34,0.16,0.53-0.53,0.9-0.54c0.25-0.01,0.38,0.29,0.47,0.52c0.37,0.91,1.15,1.62,2.01,2.08
			c0.87,0.46,1.83,0.72,2.78,0.97c-0.86-1.46-1.28-3.13-2.12-4.58C39.21,64.01,38.27,62.35,37.68,60.64z"/>
	</g>
</g>
</svg>
