<?xml version="1.0" encoding="utf-8"?>
<!-- Generator: Adobe Illustrator 24.3.0, SVG Export Plug-In . SVG Version: 6.00 Build 0)  -->
<svg version="1.1" xmlns="http://www.w3.org/2000/svg" xmlns:xlink="http://www.w3.org/1999/xlink" x="0px" y="0px"
	 viewBox="0 0 500 500" style="enable-background:new 0 0 500 500;" xml:space="preserve">
<style type="text/css">
	.st0{display:none;}
	.st1{display:none;fill:#F7F5E8;}
	.st2{fill:#E75D74;}
	.st3{fill:#FFDC48;}
	.st4{fill:#469F9A;}
	.st5{fill:#64ACED;}
	.st6{fill:#EB8E78;}
	.st7{fill:#4F9FDB;}
	.st8{fill:#3A3565;}
	.st9{fill:#4E5785;}
	.st10{fill:#EEE0D2;}
</style>
<g id="BACKGROUND" class="st0">
</g>
<g id="OBJECTS">
	<g>
		<path class="st1" d="M482.25,422.99H35.27c-9.8,0-17.75,7.95-17.75,17.75v1.51c0,9.8,7.95,17.75,17.75,17.75h446.99
			c9.8,0,17.75-7.95,17.75-17.75v-1.51C500,430.94,492.05,422.99,482.25,422.99z"/>
		<path class="st2" d="M362.73,75.7H223.11v63.01c3.81-1.64,8.03-2.39,12.47-1.9c13.12,1.45,23.5,13.56,23.89,27.89
			c0.44,16.35-11.63,29.76-26.58,29.76c-3.46,0-6.75-0.74-9.78-2.04v63.01h57.75c-1.58,4.67-2.17,9.87-1.18,15.36
			c2.41,13.37,13.33,23.37,25.87,23.48c14.79,0.14,26.82-12.85,26.82-28.9c0-3.5-0.61-6.84-1.66-9.94h57.75V103.66
			C388.46,88.22,376.94,75.7,362.73,75.7z"/>
		<path class="st3" d="M388.46,401.3V254.06h-57.97c1.51,4.14,2.2,8.73,1.74,13.55c-1.33,14.26-12.47,25.55-25.66,25.97
			c-15.05,0.48-27.38-12.64-27.38-28.89c0-3.76,0.68-7.34,1.88-10.63h-57.97v62.77c-4.3-1.72-9.08-2.36-14.13-1.28
			c-12.3,2.62-21.5,14.49-21.6,28.12c-0.13,16.08,11.83,29.15,26.59,29.15c3.22,0,6.29-0.66,9.15-1.81v62.77h135.46
			C375.08,433.78,388.46,419.24,388.46,401.3z"/>
		<path class="st4" d="M86.67,433.78h137.26v-63.01c-3.81,1.64-8.03,2.39-12.47,1.9c-13.12-1.45-23.5-13.56-23.89-27.89
			c-0.44-16.35,11.63-29.76,26.58-29.76c3.46,0,6.75,0.74,9.78,2.04v-63.01h-57.75c1.58-4.67,2.17-9.87,1.18-15.36
			c-2.41-13.37-13.33-23.37-25.87-23.48c-14.79-0.14-26.82,12.85-26.82,28.9c0,3.5,0.61,6.84,1.66,9.94H58.58v149.2
			C58.58,420.11,71.16,433.78,86.67,433.78z"/>
		<path class="st5" d="M17.76,95.17L0,241.67l57.47,8.23c-1.13-4.87-1.15-10.15,0.35-15.49c3.48-12.41,14.44-20.92,26.36-20.43
			c15.88,0.67,27.45,15.93,25.42,32.66c-0.45,3.73-1.56,7.18-3.14,10.27l57.47,8.23l7.54-62.23c4.05,2.32,8.72,3.62,13.86,3.27
			c12.51-0.86,23.05-11.32,24.8-24.81c2.06-15.92-8.22-30.58-22.86-32.68c-3.19-0.46-6.32-0.23-9.29,0.49l7.54-62.23L50.75,67.66
			C34.65,65.35,19.88,77.67,17.76,95.17z"/>
		<path class="st6" d="M203.76,129.12l-2.66,6.08c0,0,0.88,3.52,0.03,6.99c-0.85,3.46,1.11,4.07-0.85,3.46
			c-1.96-0.61-1.04-6.49-1.04-6.49s-2.26,9.32-3.99,9.26c-1.73-0.06-4.63-2.05-2.67-9.77c0.92-3.62,3.65-6.05,3.65-6.05l2.68-6.62
			L203.76,129.12z"/>
		<path class="st6" d="M254.68,139.39l-2.19,6.3c0,0-2.95,1.75-4.65,4.82c-1.71,3.06-3.47,1.95-1.71,3.06
			c1.76,1.11,5.02-3.69,5.02-3.69s-4.61,8.24-3.37,9.55c1.24,1.31,4.57,2.21,8.32-4.69c1.76-3.24,1.48-7.05,1.48-7.05l2.53-6.69
			L254.68,139.39z"/>
		<path class="st6" d="M396.74,331.09c0,0-7.09,3.34-8.55-3.74c-0.46-2.24-0.6-8.39-1.07-10.71c-1.02-5.01-2.89-8.92-1.35-7.92
			c2.26,1.46,5.72,14.41,5.72,14.41l7.14,2.11L396.74,331.09z"/>
		<path class="st6" d="M393.07,347.99c0,0-7.08,3.37-8.56-3.71c-0.47-2.24-0.62-8.39-1.1-10.7c-1.03-5-2.92-8.91-1.37-7.92
			c2.26,1.45,5.77,14.39,5.77,14.39l7.15,2.09L393.07,347.99z"/>
		<path class="st7" d="M456.27,321.31c-9.26-4.03-25.2,17.32-48.17,18.13c-12.64,0.44-16.31,1.21-16.31,1.21l0.74,9.67
			c0,0,31.87,6.04,52.62,0.81C465.91,345.88,465.54,325.34,456.27,321.31z"/>
		<path class="st3" d="M247.84,80.66c0,0,11.72,19.32,11.72,26.76s-6.49,33.92-6.49,33.92l5.93,1.98c0,0,14.24-26.48,15.61-35.4
			s-5.73-30.23-5.73-30.23s13.38,2.17,12.92-1.79s26,0,26,0s0.46-26.77-7.3-26.77s-28.02-5.74-48.36-0.52
			c-14.88,3.82-30.55,11.92-40.58,34.23c-10.03,22.31-13.23,45.61-13.23,45.61l5.47,2.97c0,0,14.59-42.14,26-47.59
			S241.7,77.49,247.84,80.66z"/>
		<path class="st8" d="M438.11,288.28c0,0-5.68,0.54-5.19-5.37c0.49-5.91,3.53-6.63,14.08-3.49c6.58,1.96,11.18,3.73,12.35,5.64
			c2.03,3.32,2.71,9.95-0.24,16.38c-1.85,4.03-7.91,8.32-7.91,8.32L438.11,288.28z"/>
		<path class="st6" d="M442.56,312.45c0,0,4.08,3.63,1.48,10.07l12.6-7.65l-5.19-9.67L442.56,312.45z"/>
		<path class="st5" d="M439.97,339.84l2.22-16.92l15.13-13.53l0.81,5.48c0,0,12.97,10.88,19.64,31.02
			c6.67,20.14,7.04,53.17,7.04,53.17l-40.39-21.35C444.41,377.7,435.15,363.6,439.97,339.84z"/>
		<path class="st8" d="M482.95,423.62c-6.72,4.17-57.81,6.85-57.81,6.85s-15.93-5.24-12.6-12.89c4.42-10.15,35.95-20.54,35.95-20.54
			l-3.34-19.33l40.39,21.35C485.55,399.05,490.74,418.79,482.95,423.62z"/>
		<path class="st5" d="M449.23,316.48c-7.42,0.24-25.94,7.25-37.43,7.25c-11.49,0-16.68-1.21-16.68-1.21l-0.37,9.26
			c0,0,8.52,7.65,29.27,8.46s30.02,2.82,34.46-2.42C462.94,332.59,461.46,316.07,449.23,316.48z"/>
		<path class="st8" d="M439.6,367.23c-6.7-3.36-10.75,2.01-12.97,3.63c-2.22,1.61-6.3,11.28-1.85,15.31
			c4.45,4.03,11.49,22.15,19.27,25.78c7.78,3.63,16.68,6.44,16.68,6.44s4.08-6.85,7.78-6.85
			C468.5,411.54,454.05,374.48,439.6,367.23z"/>
		<polygon class="st6" points="134.31,436.91 134.31,411.94 143.94,412.75 141.72,437.72 		"/>
		<path class="st6" d="M143.89,240.85c-3.61-2-5.38,2.98-5.38,2.98s-0.08-9.15-3.01-10.58c-4.65-2.27-8.53,1.71-10.73,6.94
			c-1.4,0.01-3.71,0.33-3.65,2.31c0.04,1.41,1.01,2.67,1.97,3.58c-0.66,4.11-0.19,7.91,1.78,9.31c6.27,4.43,7.69,2.57,12.54,2.22
			c2.33-0.17,2.06-4.93,3.5-5.32C142.75,251.79,147.65,242.94,143.89,240.85z"/>
		<polygon class="st6" points="60.94,410.33 52.78,417.58 56.49,423.22 66.87,415.97 		"/>
		<polygon class="st6" points="140.92,252.3 138.7,270.62 127.09,267.56 130.82,255.59 		"/>
		<path class="st8" d="M131.1,233.1c0,0,3.46,32.22,7.91,32.49c4.45,0.27,11.86-9.13,14.82-15.31c2.96-6.18,3.21-19.07-7.16-22.56
			C137.06,224.49,130.85,227.99,131.1,233.1z"/>
		<path class="st6" d="M465.91,408.72c0,0,7.92,10.66,8.71,14.21c1.27,5.67,0.68,5.16,0.68,5.16l-10.5-0.84l-4.08-8.86
			L465.91,408.72z"/>
		<path class="st8" d="M462.2,427.25l-12.97,1.61l1.48,6.04c0,0,3.34,1.21,8.15,0.4s6.67-2.42,6.67-2.42s0.74,2.42,4.45,2.42
			c3.71,0,5.19-1.21,5.19-1.21l0.37-6.44L462.2,427.25z"/>
		<path class="st9" d="M95.77,317.68c0,0-7.41,21.75-7.41,29s2.22,29-5.19,38.67c-7.41,9.67-22.23,24.97-22.23,24.97l5.93,5.64
			c0,0,27.42-10.47,37.06-24.17s19.27-50.75,19.27-50.75L95.77,317.68z"/>
		<path class="st9" d="M103.92,321.71c0,0-9.63,16.11-2.22,23.36c7.41,7.25,24.46,33.03,27.42,38.67s0,22.56,3.71,33.84l9.63,3.22
			c0,0,5.93-36.25,1.48-55.59c-4.45-19.33-14.08-41.09-14.08-41.09L103.92,321.71z"/>
		<path class="st2" d="M134.56,262.63c-10.45,0.84-43.6-0.54-70.28-15.04l-2.22,8.86c0,0,45.15,23.05,42.62,29.81
			c-8.15,21.75-14.08,44.31-14.08,44.31s10.59,5.54,22.98,8.86c8.7,2.33,19.05,2.38,21.49-1.61c0,0,6.68-26.46,13.83-40.28
			c4.45-8.59,1.73-13.96,6.92-22.02s20.26-45.11,21.74-56.39l-8.77-4.57C168.77,214.57,154.57,261.02,134.56,262.63z"/>
		<path class="st5" d="M169.14,443.36l-27.42-5.64l-7.41-0.81l0.74,9.67C135.05,446.58,155.8,454.64,169.14,443.36z"/>
		<path class="st5" d="M54.51,414.09l5.93,8.06c0,0-0.99,12.89-7.91,22.56s-8.65,5.91-8.65,5.91s4.69-7.52,4.69-16.11
			c0-8.59-1.48-14.5-1.48-14.5L54.51,414.09z"/>
		<path class="st6" d="M171.49,216.98l2.47-6.18c0,0-0.99-3.49-0.25-6.98c0.74-3.49-1.24-4.03,0.74-3.49
			c1.98,0.54,1.24,6.44,1.24,6.44s1.98-9.4,3.71-9.4s4.69,1.88,2.96,9.67c-0.81,3.65-3.46,6.18-3.46,6.18l-2.47,6.71L171.49,216.98z
			"/>
		<path class="st6" d="M65.99,248.53l-5.36-3.38c0,0-1.11-3.45-3.61-5.78s-1.2-4.04-2.5-2.33s2.52,5.98,2.52,5.98
			s-6.72-6.29-8.11-5.18s-2.75,4.54,2.89,9.69c2.65,2.42,6.16,2.74,6.16,2.74l5.65,3.81L65.99,248.53z"/>
		<path class="st6" d="M243.08,81.91c0,0,14.82,0,14.08-6.44c-0.74-6.44-11.08-6.91-11.08-6.91L243.08,81.91z"/>
		<path class="st6" d="M239.26,59.26c-3.6,2.02-0.9,6.49-0.9,6.49s-6.89-5.26-9.66-3.5c-4.41,2.79-3.69,8.53-1.06,13.52
			c-0.81,1.25-1.91,3.46-0.4,4.57c1.08,0.79,2.58,0.67,3.83,0.34c2.69,2.97,5.8,4.78,8,3.85c6.96-2.96,6.4-5.3,8.97-9.79
			c1.23-2.15-2.48-4.69-1.94-6.19C246.77,66.64,243.01,57.15,239.26,59.26z"/>
		<path class="st8" d="M223,70.21c-3.02-7.38-3.25-9.71,0.5-11.82c3.75-2.11,3.68-3.63,7.32-8.01c3.64-4.38,16.56,2.51,18.57,8.1
			s5.38,10.35,0.6,12.9c-4.78,2.55-4.81,13-8.95,6.77c-4.14-6.24-5.41-9.11-8.85-9.78C228.26,67.62,224.97,75.05,223,70.21z"/>
		<path class="st4" d="M302.98,49.77c0,0,21.74-3.22,23.72,16.11c1.98,19.33-19.76,37.06-19.76,37.06s14.82-3.22,29.15,2.69
			l0.99,8.59c0,0-54.02,7.57-51.88-8.59C288.14,83.34,300.49,48.9,302.98,49.77z"/>
		<path class="st10" d="M336.08,105.62c0,0,4.94-2.69,7.66-2.69c2.72,0,4.69,10.2,9.39,13.96s8.65,6.98,7.41,8.06
			s-11.37-1.06-15.56-4.03c-4.94-3.49-7.91-6.71-7.91-6.71L336.08,105.62z"/>
		<path class="st6" d="M453.93,293.91c-3.79-1.55-3.06,2.02-3.06,2.02s-0.95-9.36-4.08-10.14c-8.55-2.15-11.56,4.81-12.41,12.43
			l-3.36,6.85l3.09,0.22c0.12,5.16,0.8,9.31,0.8,9.31c4.35,0.34,11.89-1.35,16.3-4.83c1.88-1.49-0.36-5.33,1.03-5.9
			C454,303.13,457.88,295.52,453.93,293.91z"/>
	</g>
</g>
<g id="DESIGNED_BY_FREEPIK" class="st0">
</g>
</svg>
